M48
;GenerationSoftware,Autodesk,EAGLE,9.6.2*%
;CreationDate,2021-08-11T16:50:51Z*%
FMAT,2
ICI,OFF
METRIC,TZ,000.000
T4C0.254
T3C0.381
T2C1.016
T1C3.048
%
G90
M71
T1
X113792Y178816
X2540Y2540
X20320Y2540
X2540Y55880
X20320Y55880
X25908Y2540
X43688Y2540
X25908Y55880
X43688Y55880
X49276Y2540
X67056Y2540
X49276Y55880
X67056Y55880
X72644Y2540
X90424Y2540
X72644Y55880
X90424Y55880
X96012Y2540
X113792Y2540
X96012Y55880
X113792Y55880
X2540Y64008
X20320Y64008
X2540Y117348
X20320Y117348
X25908Y64008
X43688Y64008
X25908Y117348
X43688Y117348
X49276Y64008
X67056Y64008
X49276Y117348
X67056Y117348
X72644Y64008
X90424Y64008
X72644Y117348
X90424Y117348
X96012Y64008
X113792Y64008
X96012Y117348
X113792Y117348
X2540Y125476
X20320Y125476
X2540Y178816
X20320Y178816
X25908Y125476
X43688Y125476
X25908Y178816
X43688Y178816
X49276Y125476
X67056Y125476
X49276Y178816
X67056Y178816
X72644Y125476
X90424Y125476
X72644Y178816
X90424Y178816
X96012Y125476
X113792Y125476
X96012Y178816
T2
X68326Y113538
X1270Y24130
X1270Y26670
X1270Y29210
X1270Y31750
X1270Y34290
X1270Y36830
X1270Y39370
X1270Y41910
X1270Y44450
X1270Y46990
X1270Y49530
X1270Y52070
X21590Y13970
X21590Y16510
X21590Y19050
X21590Y21590
X21590Y24130
X21590Y26670
X21590Y29210
X21590Y31750
X21590Y34290
X21590Y36830
X21590Y39370
X21590Y41910
X21590Y44450
X21590Y46990
X21590Y49530
X21590Y52070
X115062Y162306
X24638Y24130
X24638Y26670
X24638Y29210
X24638Y31750
X24638Y34290
X24638Y36830
X24638Y39370
X24638Y41910
X24638Y44450
X24638Y46990
X24638Y49530
X24638Y52070
X44958Y13970
X44958Y16510
X44958Y19050
X44958Y21590
X44958Y24130
X44958Y26670
X44958Y29210
X44958Y31750
X44958Y34290
X44958Y36830
X44958Y39370
X44958Y41910
X44958Y44450
X44958Y46990
X44958Y49530
X44958Y52070
X115062Y164846
X48006Y24130
X48006Y26670
X48006Y29210
X48006Y31750
X48006Y34290
X48006Y36830
X48006Y39370
X48006Y41910
X48006Y44450
X48006Y46990
X48006Y49530
X48006Y52070
X68326Y13970
X68326Y16510
X68326Y19050
X68326Y21590
X68326Y24130
X68326Y26670
X68326Y29210
X68326Y31750
X68326Y34290
X68326Y36830
X68326Y39370
X68326Y41910
X68326Y44450
X68326Y46990
X68326Y49530
X68326Y52070
X115062Y167386
X71374Y24130
X71374Y26670
X71374Y29210
X71374Y31750
X71374Y34290
X71374Y36830
X71374Y39370
X71374Y41910
X71374Y44450
X71374Y46990
X71374Y49530
X71374Y52070
X91694Y13970
X91694Y16510
X91694Y19050
X91694Y21590
X91694Y24130
X91694Y26670
X91694Y29210
X91694Y31750
X91694Y34290
X91694Y36830
X91694Y39370
X91694Y41910
X91694Y44450
X91694Y46990
X91694Y49530
X91694Y52070
X115062Y169926
X94742Y24130
X94742Y26670
X94742Y29210
X94742Y31750
X94742Y34290
X94742Y36830
X94742Y39370
X94742Y41910
X94742Y44450
X94742Y46990
X94742Y49530
X94742Y52070
X115062Y13970
X115062Y16510
X115062Y19050
X115062Y21590
X115062Y24130
X115062Y26670
X115062Y29210
X115062Y31750
X115062Y34290
X115062Y36830
X115062Y39370
X115062Y41910
X115062Y44450
X115062Y46990
X115062Y49530
X115062Y52070
X115062Y172466
X1270Y85598
X1270Y88138
X1270Y90678
X1270Y93218
X1270Y95758
X1270Y98298
X1270Y100838
X1270Y103378
X1270Y105918
X1270Y108458
X1270Y110998
X1270Y113538
X21590Y75438
X21590Y77978
X21590Y80518
X21590Y83058
X21590Y85598
X21590Y88138
X21590Y90678
X21590Y93218
X21590Y95758
X21590Y98298
X21590Y100838
X21590Y103378
X21590Y105918
X21590Y108458
X21590Y110998
X21590Y113538
X115062Y175006
X24638Y85598
X24638Y88138
X24638Y90678
X24638Y93218
X24638Y95758
X24638Y98298
X24638Y100838
X24638Y103378
X24638Y105918
X24638Y108458
X24638Y110998
X24638Y113538
X44958Y75438
X44958Y77978
X44958Y80518
X44958Y83058
X44958Y85598
X44958Y88138
X44958Y90678
X44958Y93218
X44958Y95758
X44958Y98298
X44958Y100838
X44958Y103378
X44958Y105918
X44958Y108458
X44958Y110998
X44958Y113538
X48006Y85598
X48006Y88138
X48006Y90678
X48006Y93218
X48006Y95758
X48006Y98298
X48006Y100838
X48006Y103378
X48006Y105918
X48006Y108458
X48006Y110998
X48006Y113538
X68326Y75438
X68326Y77978
X68326Y80518
X68326Y83058
X68326Y85598
X68326Y88138
X68326Y90678
X68326Y93218
X68326Y95758
X68326Y98298
X68326Y100838
X68326Y103378
X68326Y105918
X68326Y108458
X68326Y110998
X71374Y85598
X71374Y88138
X71374Y90678
X71374Y93218
X71374Y95758
X71374Y98298
X71374Y100838
X71374Y103378
X71374Y105918
X71374Y108458
X71374Y110998
X71374Y113538
X91694Y75438
X91694Y77978
X91694Y80518
X91694Y83058
X91694Y85598
X91694Y88138
X91694Y90678
X91694Y93218
X91694Y95758
X91694Y98298
X91694Y100838
X91694Y103378
X91694Y105918
X91694Y108458
X91694Y110998
X91694Y113538
X94742Y85598
X94742Y88138
X94742Y90678
X94742Y93218
X94742Y95758
X94742Y98298
X94742Y100838
X94742Y103378
X94742Y105918
X94742Y108458
X94742Y110998
X94742Y113538
X115062Y75438
X115062Y77978
X115062Y80518
X115062Y83058
X115062Y85598
X115062Y88138
X115062Y90678
X115062Y93218
X115062Y95758
X115062Y98298
X115062Y100838
X115062Y103378
X115062Y105918
X115062Y108458
X115062Y110998
X115062Y113538
X1270Y147066
X1270Y149606
X1270Y152146
X1270Y154686
X1270Y157226
X1270Y159766
X1270Y162306
X1270Y164846
X1270Y167386
X1270Y169926
X1270Y172466
X1270Y175006
X21590Y136906
X21590Y139446
X21590Y141986
X21590Y144526
X21590Y147066
X21590Y149606
X21590Y152146
X21590Y154686
X21590Y157226
X21590Y159766
X21590Y162306
X21590Y164846
X21590Y167386
X21590Y169926
X21590Y172466
X21590Y175006
X24638Y147066
X24638Y149606
X24638Y152146
X24638Y154686
X24638Y157226
X24638Y159766
X24638Y162306
X24638Y164846
X24638Y167386
X24638Y169926
X24638Y172466
X24638Y175006
X44958Y136906
X44958Y139446
X44958Y141986
X44958Y144526
X44958Y147066
X44958Y149606
X44958Y152146
X44958Y154686
X44958Y157226
X44958Y159766
X44958Y162306
X44958Y164846
X44958Y167386
X44958Y169926
X44958Y172466
X44958Y175006
X48006Y147066
X48006Y149606
X48006Y152146
X48006Y154686
X48006Y157226
X48006Y159766
X48006Y162306
X48006Y164846
X48006Y167386
X48006Y169926
X48006Y172466
X48006Y175006
X68326Y136906
X68326Y139446
X68326Y141986
X68326Y144526
X68326Y147066
X68326Y149606
X68326Y152146
X68326Y154686
X68326Y157226
X68326Y159766
X68326Y162306
X68326Y164846
X68326Y167386
X68326Y169926
X68326Y172466
X68326Y175006
X71374Y147066
X71374Y149606
X71374Y152146
X71374Y154686
X71374Y157226
X71374Y159766
X71374Y162306
X71374Y164846
X71374Y167386
X71374Y169926
X71374Y172466
X71374Y175006
X91694Y136906
X91694Y139446
X91694Y141986
X91694Y144526
X91694Y147066
X91694Y149606
X91694Y152146
X91694Y154686
X91694Y157226
X91694Y159766
X91694Y162306
X91694Y164846
X91694Y167386
X91694Y169926
X91694Y172466
X91694Y175006
X94742Y147066
X94742Y149606
X94742Y152146
X94742Y154686
X94742Y157226
X94742Y159766
X94742Y162306
X94742Y164846
X94742Y167386
X94742Y169926
X94742Y172466
X94742Y175006
X115062Y136906
X115062Y139446
X115062Y141986
X115062Y144526
X115062Y147066
X115062Y149606
X115062Y152146
X115062Y154686
X115062Y157226
X115062Y159766
T3
X11303Y14351
X34671Y14351
X58039Y14351
X81407Y14351
X104775Y14351
X11303Y75819
X58039Y75819
X81407Y75819
X58039Y137287
X81407Y137287
X34671Y75819
X34671Y137287
X104775Y75819
X11303Y137287
X104775Y137287
T4
X36703Y85090
X37973Y82423
X28829Y83566
X33909Y79629
X33519Y68326
X39116Y72136
X40259Y78867
X40259Y81280
X39497Y82499
X29845Y83439
X38227Y76581
X41021Y89662
X36703Y90043
X43053Y85344
X38608Y98298
X38481Y99822
X29718Y105918
X29718Y107188
X38608Y108458
X41656Y103505
X42545Y87503
X41529Y108585
X36703Y86995
X43307Y86868
X40767Y107315
X36703Y85979
X26797Y70366
X40767Y109728
X26797Y69366
X28448Y98298
X27940Y103505
X28575Y102616
X34163Y83566
X33909Y86868
X41783Y98298
X41021Y99949
X39624Y111760
X55499Y92329
X64643Y76581
X58674Y90043
X64897Y80010
X55880Y72136
X51308Y111125
X62611Y91440
X51308Y109728
X53086Y86106
X59563Y68326
X51308Y112268
X65151Y112268
X56261Y86741
X53721Y89662
X61976Y75743
X57150Y92329
X59690Y87757
X52451Y95758
X60198Y79883
X59944Y78232
X50165Y74422
X49276Y87122
X49276Y89408
X63246Y85598
X48768Y78248
X55322Y105756
X66040Y79883
X58091Y104867
X58091Y103038
X56237Y103038
X55322Y103953
X57151Y103927
X59005Y103978
X58065Y106594
X56237Y106620
X56237Y104867
X57176Y105756
X59005Y105781
X64770Y93345
X60071Y85090
X61341Y82423
X52197Y83566
X57277Y79629
X56887Y68326
X62484Y72136
X63627Y78867
X63627Y81280
X62865Y82499
X53213Y83439
X61595Y76581
X64389Y89662
X60071Y90043
X66421Y85344
X61976Y98298
X61849Y99822
X53086Y105918
X53086Y107188
X61976Y108458
X65024Y103505
X65913Y87503
X64897Y108585
X60071Y86995
X66675Y86868
X64135Y107315
X60071Y85979
X50165Y70366
X64135Y109728
X50165Y69366
X51816Y98298
X51308Y103505
X51943Y102616
X57531Y83566
X57277Y86868
X65151Y98298
X64389Y99949
X62992Y111760
X78867Y92329
X88011Y76581
X82042Y90043
X88265Y80010
X79248Y72136
X74676Y111125
X85979Y91440
X74676Y109728
X76454Y86106
X82931Y68326
X74676Y112268
X88519Y112268
X79629Y86741
X77089Y89662
X85344Y75743
X80518Y92329
X83058Y87757
X75819Y95758
X83566Y79883
X83312Y78232
X73533Y74422
X72644Y87122
X72644Y89408
X86614Y85598
X72136Y78248
X78690Y105756
X89408Y79883
X81459Y104867
X81459Y103038
X79605Y103038
X78690Y103953
X80519Y103927
X82373Y103978
X81433Y106594
X79605Y106620
X79605Y104867
X80544Y105756
X82373Y105781
X88138Y93345
X83439Y85090
X84709Y82423
X75565Y83566
X80645Y79629
X80255Y68326
X85852Y72136
X86995Y78867
X86995Y81280
X86233Y82499
X76581Y83439
X84963Y76581
X87757Y89662
X83439Y90043
X89789Y85344
X85344Y98298
X85217Y99822
X76454Y105918
X76454Y107188
X85344Y108458
X88392Y103505
X89281Y87503
X88265Y108585
X83439Y86995
X90043Y86868
X87503Y107315
X83439Y85979
X73533Y70366
X87503Y109728
X73533Y69366
X75184Y98298
X74676Y103505
X75311Y102616
X80899Y83566
X80645Y86868
X88519Y98298
X87757Y99949
X86360Y111760
X102235Y92329
X111379Y76581
X105410Y90043
X111633Y80010
X102616Y72136
X98044Y111125
X109347Y91440
X98044Y109728
X99822Y86106
X106299Y68326
X98044Y112268
X111887Y112268
X102997Y86741
X100457Y89662
X108712Y75743
X103886Y92329
X106426Y87757
X99187Y95758
X106934Y79883
X106680Y78232
X96901Y74422
X96012Y87122
X96012Y89408
X109982Y85598
X95504Y78248
X102058Y105756
X112776Y79883
X104827Y104867
X104827Y103038
X102973Y103038
X102058Y103953
X103887Y103927
X105741Y103978
X104801Y106594
X102973Y106620
X102973Y104867
X103912Y105756
X105741Y105781
X111506Y93345
X106807Y85090
X108077Y82423
X98933Y83566
X104013Y79629
X103623Y68326
X109220Y72136
X110363Y78867
X110363Y81280
X109601Y82499
X99949Y83439
X108331Y76581
X111125Y89662
X106807Y90043
X113157Y85344
X108712Y98298
X108585Y99822
X99822Y105918
X99822Y107188
X108712Y108458
X111760Y103505
X112649Y87503
X111633Y108585
X106807Y86995
X113411Y86868
X110871Y107315
X106807Y85979
X96901Y70366
X110871Y109728
X96901Y69366
X98552Y98298
X98044Y103505
X98679Y102616
X104267Y83566
X104013Y86868
X111887Y98298
X111125Y99949
X109728Y111760
X8763Y153797
X17907Y138049
X11938Y151511
X18161Y141478
X9144Y133604
X4572Y172593
X15875Y152908
X4572Y171196
X6350Y147574
X12827Y129794
X4572Y173736
X18415Y173736
X9525Y148209
X6985Y151130
X15240Y137211
X10414Y153797
X12954Y149225
X5715Y157226
X13462Y141351
X13208Y139700
X3429Y135890
X2540Y148590
X2540Y150876
X16510Y147066
X2032Y139716
X8586Y167224
X19304Y141351
X11355Y166335
X11355Y164506
X9501Y164506
X8586Y165421
X10415Y165395
X12269Y165446
X11329Y168062
X9501Y168088
X9501Y166335
X10440Y167224
X12269Y167249
X18034Y154813
X13335Y146558
X14605Y143891
X5461Y145034
X10541Y141097
X10151Y129794
X15748Y133604
X16891Y140335
X16891Y142748
X16129Y143967
X6477Y144907
X14859Y138049
X17653Y151130
X13335Y151511
X19685Y146812
X15240Y159766
X15113Y161290
X6350Y167386
X6350Y168656
X66421Y23876
X18288Y164973
X19177Y148971
X18161Y170053
X13335Y148463
X19939Y148336
X17399Y168783
X13335Y147447
X3429Y131834
X17399Y171196
X3429Y130834
X5080Y159766
X4572Y164973
X5207Y164084
X10795Y145034
X10541Y148336
X18415Y159766
X17653Y161417
X16256Y173228
X32131Y153797
X41275Y138049
X35306Y151511
X41529Y141478
X32512Y133604
X27940Y172593
X39243Y152908
X27940Y171196
X29718Y147574
X36195Y129794
X27940Y173736
X41783Y173736
X32893Y148209
X30353Y151130
X38608Y137211
X33782Y153797
X36322Y149225
X29083Y157226
X36830Y141351
X36576Y139700
X26797Y135890
X25908Y148590
X25908Y150876
X39878Y147066
X25400Y139716
X31954Y167224
X42672Y141351
X34723Y166335
X34723Y164506
X32869Y164506
X31954Y165421
X33783Y165395
X35637Y165446
X34697Y168062
X32869Y168088
X32869Y166335
X33808Y167224
X35637Y167249
X41402Y154813
X36703Y146558
X37973Y143891
X28829Y145034
X33909Y141097
X33519Y129794
X39116Y133604
X40259Y140335
X40259Y142748
X39497Y143967
X29845Y144907
X38227Y138049
X41021Y151130
X36703Y151511
X43053Y146812
X38608Y159766
X38481Y161290
X29718Y167386
X29718Y168656
X38608Y169926
X41656Y164973
X42545Y148971
X41529Y170053
X36703Y148463
X43307Y148336
X40767Y168783
X36703Y147447
X26797Y131834
X40767Y171196
X26797Y130834
X28448Y159766
X27940Y164973
X28575Y164084
X34163Y145034
X33909Y148336
X41783Y159766
X41021Y161417
X39624Y173228
X55499Y153797
X64643Y138049
X58674Y151511
X64897Y141478
X55880Y133604
X51308Y172593
X62611Y152908
X51308Y171196
X53086Y147574
X59563Y129794
X51308Y173736
X65151Y173736
X56261Y148209
X53721Y151130
X61976Y137211
X57150Y153797
X59690Y149225
X52451Y157226
X60198Y141351
X59944Y139700
X50165Y135890
X49276Y148590
X49276Y150876
X63246Y147066
X48768Y139716
X55322Y167224
X66040Y141351
X58091Y166335
X58091Y164506
X56237Y164506
X55322Y165421
X57151Y165395
X59005Y165446
X58065Y168062
X56237Y168088
X56237Y166335
X57176Y167224
X59005Y167249
X64770Y154813
X60071Y146558
X61341Y143891
X52197Y145034
X57277Y141097
X56887Y129794
X62484Y133604
X63627Y140335
X63627Y142748
X62865Y143967
X53213Y144907
X61595Y138049
X64389Y151130
X60071Y151511
X66421Y146812
X61976Y159766
X61849Y161290
X53086Y167386
X53086Y168656
X61976Y169926
X65024Y164973
X65913Y148971
X64897Y170053
X60071Y148463
X66675Y148336
X64135Y168783
X60071Y147447
X50165Y131834
X64135Y171196
X50165Y130834
X51816Y159766
X51308Y164973
X51943Y164084
X57531Y145034
X57277Y148336
X65151Y159766
X64389Y161417
X62992Y173228
X78867Y153797
X88011Y138049
X82042Y151511
X88265Y141478
X79248Y133604
X74676Y172593
X85979Y152908
X74676Y171196
X76454Y147574
X82931Y129794
X74676Y173736
X88519Y173736
X79629Y148209
X77089Y151130
X85344Y137211
X80518Y153797
X83058Y149225
X75819Y157226
X83566Y141351
X83312Y139700
X73533Y135890
X72644Y148590
X72644Y150876
X86614Y147066
X72136Y139716
X78690Y167224
X89408Y141351
X81459Y166335
X81459Y164506
X79605Y164506
X78690Y165421
X80519Y165395
X82373Y165446
X81433Y168062
X79605Y168088
X79605Y166335
X80544Y167224
X82373Y167249
X88138Y154813
X83439Y146558
X84709Y143891
X75565Y145034
X80645Y141097
X80255Y129794
X85852Y133604
X86995Y140335
X86995Y142748
X86233Y143967
X76581Y144907
X84963Y138049
X87757Y151130
X83439Y151511
X89789Y146812
X85344Y159766
X85217Y161290
X76454Y167386
X76454Y168656
X85344Y169926
X88392Y164973
X89281Y148971
X88265Y170053
X83439Y148463
X90043Y148336
X87503Y168783
X83439Y147447
X73533Y131834
X87503Y171196
X73533Y130834
X75184Y159766
X74676Y164973
X75311Y164084
X80899Y145034
X80645Y148336
X88519Y159766
X87757Y161417
X86360Y173228
X102235Y153797
X111379Y138049
X105410Y151511
X111633Y141478
X102616Y133604
X98044Y172593
X109347Y152908
X98044Y171196
X99822Y147574
X106299Y129794
X98044Y173736
X111887Y173736
X102997Y148209
X100457Y151130
X108712Y137211
X103886Y153797
X106426Y149225
X99187Y157226
X106934Y141351
X106680Y139700
X96901Y135890
X96012Y148590
X96012Y150876
X109982Y147066
X95504Y139716
X102058Y167224
X112776Y141351
X104827Y166335
X104827Y164506
X102973Y164506
X102058Y165421
X103887Y165395
X105741Y165446
X104801Y168062
X102973Y168088
X102973Y166335
X103912Y167224
X105741Y167249
X111506Y154813
X106807Y146558
X108077Y143891
X98933Y145034
X104013Y141097
X103623Y129794
X109220Y133604
X110363Y140335
X110363Y142748
X109601Y143967
X99949Y144907
X108331Y138049
X111125Y151130
X106807Y151511
X113157Y146812
X108712Y159766
X108585Y161290
X99822Y167386
X99822Y168656
X108712Y169926
X111760Y164973
X112649Y148971
X111633Y170053
X106807Y148463
X113411Y148336
X110871Y168783
X106807Y147447
X96901Y131834
X110871Y171196
X96901Y130834
X98552Y159766
X98044Y164973
X98679Y164084
X104267Y145034
X104013Y148336
X111887Y159766
X111125Y161417
X109728Y173228
X8763Y30861
X17907Y15113
X11938Y28575
X18161Y18542
X9144Y10668
X4572Y49657
X15875Y29972
X4572Y48260
X6350Y24638
X12827Y6858
X4572Y50800
X18415Y50800
X9525Y25273
X6985Y28194
X15240Y14275
X10414Y30861
X12954Y26289
X5715Y34290
X13462Y18415
X13208Y16764
X3429Y12954
X2540Y25654
X2540Y27940
X16510Y24130
X2032Y16780
X8586Y44288
X19304Y18415
X11355Y43399
X11355Y41570
X9501Y41570
X8586Y42485
X10415Y42459
X12269Y42510
X11329Y45126
X9501Y45152
X9501Y43399
X10440Y44288
X12269Y44313
X18034Y31877
X13335Y23622
X14605Y20955
X5461Y22098
X10541Y18161
X10151Y6858
X15748Y10668
X16891Y17399
X16891Y19812
X16129Y21031
X6477Y21971
X14859Y15113
X17653Y28194
X13335Y28575
X19685Y23876
X15240Y36830
X15113Y38354
X6350Y44450
X6350Y45720
X15240Y46990
X18288Y42037
X19177Y26035
X18161Y47117
X13335Y25527
X19939Y25400
X17399Y45847
X13335Y24511
X3429Y8898
X17399Y48260
X3429Y7898
X5080Y36830
X4572Y42037
X5207Y41148
X10795Y22098
X10541Y25400
X18415Y36830
X17653Y38481
X16256Y50292
X32131Y30861
X41275Y15113
X35306Y28575
X41529Y18542
X32512Y10668
X27940Y49657
X39243Y29972
X27940Y48260
X29718Y24638
X36195Y6858
X27940Y50800
X41783Y50800
X32893Y25273
X30353Y28194
X38608Y14275
X33782Y30861
X36322Y26289
X29083Y34290
X36830Y18415
X36576Y16764
X26797Y12954
X25908Y25654
X25908Y27940
X39878Y24130
X25400Y16780
X31954Y44288
X42672Y18415
X34723Y43399
X34723Y41570
X32869Y41570
X31954Y42485
X33783Y42459
X35637Y42510
X34697Y45126
X32869Y45152
X32869Y43399
X33808Y44288
X35637Y44313
X41402Y31877
X36703Y23622
X37973Y20955
X28829Y22098
X33909Y18161
X33519Y6858
X39116Y10668
X40259Y17399
X40259Y19812
X39497Y21031
X29845Y21971
X38227Y15113
X41021Y28194
X36703Y28575
X43053Y23876
X38608Y36830
X38481Y38354
X29718Y44450
X29718Y45720
X38608Y46990
X41656Y42037
X42545Y26035
X41529Y47117
X36703Y25527
X43307Y25400
X40767Y45847
X36703Y24511
X26797Y8898
X40767Y48260
X26797Y7898
X28448Y36830
X27940Y42037
X28575Y41148
X34163Y22098
X33909Y25400
X41783Y36830
X41021Y38481
X39624Y50292
X55499Y30861
X64643Y15113
X58674Y28575
X64897Y18542
X55880Y10668
X51308Y49657
X62611Y29972
X51308Y48260
X53086Y24638
X59563Y6858
X51308Y50800
X65151Y50800
X56261Y25273
X53721Y28194
X61976Y14275
X57150Y30861
X59690Y26289
X52451Y34290
X60198Y18415
X59944Y16764
X50165Y12954
X49276Y25654
X49276Y27940
X63246Y24130
X48768Y16780
X55322Y44288
X66040Y18415
X58091Y43399
X58091Y41570
X56237Y41570
X55322Y42485
X57151Y42459
X59005Y42510
X58065Y45126
X56237Y45152
X56237Y43399
X57176Y44288
X59005Y44313
X64770Y31877
X60071Y23622
X61341Y20955
X52197Y22098
X57277Y18161
X56887Y6858
X62484Y10668
X63627Y17399
X63627Y19812
X62865Y21031
X53213Y21971
X61595Y15113
X64389Y28194
X60071Y28575
X61976Y36830
X61849Y38354
X53086Y44450
X53086Y45720
X61976Y46990
X65024Y42037
X65913Y26035
X64897Y47117
X60071Y25527
X66675Y25400
X64135Y45847
X60071Y24511
X50165Y8898
X64135Y48260
X50165Y7898
X51816Y36830
X51308Y42037
X51943Y41148
X57531Y22098
X57277Y25400
X65151Y36830
X64389Y38481
X62992Y50292
X78867Y30861
X88011Y15113
X82042Y28575
X88265Y18542
X79248Y10668
X74676Y49657
X85979Y29972
X74676Y48260
X76454Y24638
X82931Y6858
X74676Y50800
X88519Y50800
X79629Y25273
X77089Y28194
X85344Y14275
X80518Y30861
X83058Y26289
X75819Y34290
X83566Y18415
X83312Y16764
X73533Y12954
X72644Y25654
X72644Y27940
X86614Y24130
X72136Y16780
X78690Y44288
X89408Y18415
X81459Y43399
X81459Y41570
X79605Y41570
X78690Y42485
X80519Y42459
X82373Y42510
X81433Y45126
X79605Y45152
X79605Y43399
X80544Y44288
X82373Y44313
X88138Y31877
X83439Y23622
X84709Y20955
X75565Y22098
X80645Y18161
X80255Y6858
X85852Y10668
X86995Y17399
X86995Y19812
X86233Y21031
X76581Y21971
X84963Y15113
X87757Y28194
X83439Y28575
X89789Y23876
X85344Y36830
X85217Y38354
X76454Y44450
X76454Y45720
X85344Y46990
X88392Y42037
X89281Y26035
X88265Y47117
X83439Y25527
X90043Y25400
X15240Y169926
X87503Y45847
X83439Y24511
X73533Y8898
X87503Y48260
X73533Y7898
X75184Y36830
X74676Y42037
X75311Y41148
X80899Y22098
X80645Y25400
X88519Y36830
X87757Y38481
X86360Y50292
X102235Y30861
X111379Y15113
X105410Y28575
X111633Y18542
X102616Y10668
X98044Y49657
X109347Y29972
X98044Y48260
X99822Y24638
X106299Y6858
X98044Y50800
X111887Y50800
X102997Y25273
X100457Y28194
X108712Y14275
X103886Y30861
X106426Y26289
X99187Y34290
X106934Y18415
X106680Y16764
X96901Y12954
X96012Y25654
X96012Y27940
X109982Y24130
X95504Y16780
X102058Y44288
X112776Y18415
X104827Y43399
X104827Y41570
X102973Y41570
X102058Y42485
X103887Y42459
X105741Y42510
X104801Y45126
X102973Y45152
X102973Y43399
X103912Y44288
X105741Y44313
X111506Y31877
X106807Y23622
X108077Y20955
X98933Y22098
X104013Y18161
X103623Y6858
X109220Y10668
X110363Y17399
X110363Y19812
X109601Y21031
X99949Y21971
X108331Y15113
X111125Y28194
X106807Y28575
X113157Y23876
X108712Y36830
X108585Y38354
X99822Y44450
X99822Y45720
X108712Y46990
X111760Y42037
X112649Y26035
X111633Y47117
X106807Y25527
X113411Y25400
X110871Y45847
X106807Y24511
X96901Y8898
X110871Y48260
X96901Y7898
X98552Y36830
X98044Y42037
X98679Y41148
X104267Y22098
X104013Y25400
X111887Y36830
X111125Y38481
X109728Y50292
X8763Y92329
X17907Y76581
X11938Y90043
X18161Y80010
X9144Y72136
X4572Y111125
X15875Y91440
X4572Y109728
X6350Y86106
X12827Y68326
X4572Y112268
X18415Y112268
X9525Y86741
X6985Y89662
X15240Y75743
X10414Y92329
X12954Y87757
X5715Y95758
X13462Y79883
X13208Y78232
X3429Y74422
X2540Y87122
X2540Y89408
X16510Y85598
X2032Y78248
X8586Y105756
X19304Y79883
X11355Y104867
X11355Y103038
X9501Y103038
X8586Y103953
X10415Y103927
X12269Y103978
X11329Y106594
X9501Y106620
X9501Y104867
X10440Y105756
X12269Y105781
X18034Y93345
X13335Y85090
X14605Y82423
X5461Y83566
X10541Y79629
X10151Y68326
X15748Y72136
X16891Y78867
X16891Y81280
X16129Y82499
X6477Y83439
X14859Y76581
X17653Y89662
X13335Y90043
X19685Y85344
X15240Y98298
X15113Y99822
X6350Y105918
X6350Y107188
X15240Y108458
X18288Y103505
X19177Y87503
X18161Y108585
X13335Y86995
X19939Y86868
X17399Y107315
X13335Y85979
X3429Y70366
X17399Y109728
X3429Y69366
X5080Y98298
X4572Y103505
X5207Y102616
X10795Y83566
X10541Y86868
X18415Y98298
X17653Y99949
X16256Y111760
X32131Y92329
X41275Y76581
X35306Y90043
X41529Y80010
X32512Y72136
X27940Y111125
X39243Y91440
X27940Y109728
X29718Y86106
X36195Y68326
X27940Y112268
X41783Y112268
X32893Y86741
X30353Y89662
X38608Y75743
X33782Y92329
X36322Y87757
X29083Y95758
X36830Y79883
X36576Y78232
X26797Y74422
X25908Y87122
X25908Y89408
X39878Y85598
X25400Y78248
X31954Y105756
X42672Y79883
X34723Y104867
X34723Y103038
X32869Y103038
X31954Y103953
X33783Y103927
X35637Y103978
X34697Y106594
X32869Y106620
X32869Y104867
X33808Y105756
X35637Y105781
X41402Y93345
M30