G04 EAGLE Gerber RS-274X export*
G75*
%MOMM*%
%FSLAX34Y34*%
%LPD*%
%INSoldermask Bottom*%
%IPPOS*%
%AMOC8*
5,1,8,0,0,1.08239X$1,22.5*%
G01*
%ADD10R,1.727200X1.727200*%
%ADD11C,0.838200*%
%ADD12C,0.762000*%
%ADD13C,3.251200*%
%ADD14C,1.203200*%
%ADD15C,1.270000*%
%ADD16C,1.703200*%


D10*
X12700Y241300D03*
X12700Y266700D03*
X12700Y292100D03*
X12700Y317500D03*
X12700Y342900D03*
X12700Y368300D03*
X12700Y393700D03*
X12700Y419100D03*
X12700Y444500D03*
X12700Y469900D03*
X12700Y495300D03*
X12700Y520700D03*
X215900Y139700D03*
X215900Y165100D03*
X215900Y190500D03*
X215900Y215900D03*
X215900Y241300D03*
X215900Y266700D03*
X215900Y292100D03*
X215900Y317500D03*
X215900Y342900D03*
X215900Y368300D03*
X215900Y393700D03*
X215900Y419100D03*
X215900Y444500D03*
X215900Y469900D03*
X215900Y495300D03*
X215900Y520700D03*
D11*
X176530Y576580D03*
X12700Y50800D03*
D12*
X113030Y143510D03*
D13*
X25400Y25400D03*
X203200Y25400D03*
X25400Y558800D03*
X203200Y558800D03*
D10*
X246380Y241300D03*
X246380Y266700D03*
X246380Y292100D03*
X246380Y317500D03*
X246380Y342900D03*
X246380Y368300D03*
X246380Y393700D03*
X246380Y419100D03*
X246380Y444500D03*
X246380Y469900D03*
X246380Y495300D03*
X246380Y520700D03*
X449580Y139700D03*
X449580Y165100D03*
X449580Y190500D03*
X449580Y215900D03*
X449580Y241300D03*
X449580Y266700D03*
X449580Y292100D03*
X449580Y317500D03*
X449580Y342900D03*
X449580Y368300D03*
X449580Y393700D03*
X449580Y419100D03*
X449580Y444500D03*
X449580Y469900D03*
X449580Y495300D03*
X449580Y520700D03*
D11*
X410210Y576580D03*
X246380Y50800D03*
D12*
X346710Y143510D03*
D13*
X259080Y25400D03*
X436880Y25400D03*
X259080Y558800D03*
X436880Y558800D03*
D10*
X480060Y241300D03*
X480060Y266700D03*
X480060Y292100D03*
X480060Y317500D03*
X480060Y342900D03*
X480060Y368300D03*
X480060Y393700D03*
X480060Y419100D03*
X480060Y444500D03*
X480060Y469900D03*
X480060Y495300D03*
X480060Y520700D03*
X683260Y139700D03*
X683260Y165100D03*
X683260Y190500D03*
X683260Y215900D03*
X683260Y241300D03*
X683260Y266700D03*
X683260Y292100D03*
X683260Y317500D03*
X683260Y342900D03*
X683260Y368300D03*
X683260Y393700D03*
X683260Y419100D03*
X683260Y444500D03*
X683260Y469900D03*
X683260Y495300D03*
X683260Y520700D03*
D11*
X643890Y576580D03*
X480060Y50800D03*
D12*
X580390Y143510D03*
D13*
X492760Y25400D03*
X670560Y25400D03*
X492760Y558800D03*
X670560Y558800D03*
D10*
X713740Y241300D03*
X713740Y266700D03*
X713740Y292100D03*
X713740Y317500D03*
X713740Y342900D03*
X713740Y368300D03*
X713740Y393700D03*
X713740Y419100D03*
X713740Y444500D03*
X713740Y469900D03*
X713740Y495300D03*
X713740Y520700D03*
X916940Y139700D03*
X916940Y165100D03*
X916940Y190500D03*
X916940Y215900D03*
X916940Y241300D03*
X916940Y266700D03*
X916940Y292100D03*
X916940Y317500D03*
X916940Y342900D03*
X916940Y368300D03*
X916940Y393700D03*
X916940Y419100D03*
X916940Y444500D03*
X916940Y469900D03*
X916940Y495300D03*
X916940Y520700D03*
D11*
X877570Y576580D03*
X713740Y50800D03*
D12*
X814070Y143510D03*
D13*
X726440Y25400D03*
X904240Y25400D03*
X726440Y558800D03*
X904240Y558800D03*
D10*
X947420Y241300D03*
X947420Y266700D03*
X947420Y292100D03*
X947420Y317500D03*
X947420Y342900D03*
X947420Y368300D03*
X947420Y393700D03*
X947420Y419100D03*
X947420Y444500D03*
X947420Y469900D03*
X947420Y495300D03*
X947420Y520700D03*
X1150620Y139700D03*
X1150620Y165100D03*
X1150620Y190500D03*
X1150620Y215900D03*
X1150620Y241300D03*
X1150620Y266700D03*
X1150620Y292100D03*
X1150620Y317500D03*
X1150620Y342900D03*
X1150620Y368300D03*
X1150620Y393700D03*
X1150620Y419100D03*
X1150620Y444500D03*
X1150620Y469900D03*
X1150620Y495300D03*
X1150620Y520700D03*
D11*
X1111250Y576580D03*
X947420Y50800D03*
D12*
X1047750Y143510D03*
D13*
X960120Y25400D03*
X1137920Y25400D03*
X960120Y558800D03*
X1137920Y558800D03*
D10*
X12700Y855980D03*
X12700Y881380D03*
X12700Y906780D03*
X12700Y932180D03*
X12700Y957580D03*
X12700Y982980D03*
X12700Y1008380D03*
X12700Y1033780D03*
X12700Y1059180D03*
X12700Y1084580D03*
X12700Y1109980D03*
X12700Y1135380D03*
X215900Y754380D03*
X215900Y779780D03*
X215900Y805180D03*
X215900Y830580D03*
X215900Y855980D03*
X215900Y881380D03*
X215900Y906780D03*
X215900Y932180D03*
X215900Y957580D03*
X215900Y982980D03*
X215900Y1008380D03*
X215900Y1033780D03*
X215900Y1059180D03*
X215900Y1084580D03*
X215900Y1109980D03*
X215900Y1135380D03*
D11*
X176530Y1191260D03*
X12700Y665480D03*
D12*
X113030Y758190D03*
D13*
X25400Y640080D03*
X203200Y640080D03*
X25400Y1173480D03*
X203200Y1173480D03*
D10*
X246380Y855980D03*
X246380Y881380D03*
X246380Y906780D03*
X246380Y932180D03*
X246380Y957580D03*
X246380Y982980D03*
X246380Y1008380D03*
X246380Y1033780D03*
X246380Y1059180D03*
X246380Y1084580D03*
X246380Y1109980D03*
X246380Y1135380D03*
X449580Y754380D03*
X449580Y779780D03*
X449580Y805180D03*
X449580Y830580D03*
X449580Y855980D03*
X449580Y881380D03*
X449580Y906780D03*
X449580Y932180D03*
X449580Y957580D03*
X449580Y982980D03*
X449580Y1008380D03*
X449580Y1033780D03*
X449580Y1059180D03*
X449580Y1084580D03*
X449580Y1109980D03*
X449580Y1135380D03*
D11*
X410210Y1191260D03*
X246380Y665480D03*
D12*
X346710Y758190D03*
D13*
X259080Y640080D03*
X436880Y640080D03*
X259080Y1173480D03*
X436880Y1173480D03*
D10*
X480060Y855980D03*
X480060Y881380D03*
X480060Y906780D03*
X480060Y932180D03*
X480060Y957580D03*
X480060Y982980D03*
X480060Y1008380D03*
X480060Y1033780D03*
X480060Y1059180D03*
X480060Y1084580D03*
X480060Y1109980D03*
X480060Y1135380D03*
X683260Y754380D03*
X683260Y779780D03*
X683260Y805180D03*
X683260Y830580D03*
X683260Y855980D03*
X683260Y881380D03*
X683260Y906780D03*
X683260Y932180D03*
X683260Y957580D03*
X683260Y982980D03*
X683260Y1008380D03*
X683260Y1033780D03*
X683260Y1059180D03*
X683260Y1084580D03*
X683260Y1109980D03*
X683260Y1135380D03*
D11*
X643890Y1191260D03*
X480060Y665480D03*
D12*
X580390Y758190D03*
D13*
X492760Y640080D03*
X670560Y640080D03*
X492760Y1173480D03*
X670560Y1173480D03*
D10*
X713740Y855980D03*
X713740Y881380D03*
X713740Y906780D03*
X713740Y932180D03*
X713740Y957580D03*
X713740Y982980D03*
X713740Y1008380D03*
X713740Y1033780D03*
X713740Y1059180D03*
X713740Y1084580D03*
X713740Y1109980D03*
X713740Y1135380D03*
X916940Y754380D03*
X916940Y779780D03*
X916940Y805180D03*
X916940Y830580D03*
X916940Y855980D03*
X916940Y881380D03*
X916940Y906780D03*
X916940Y932180D03*
X916940Y957580D03*
X916940Y982980D03*
X916940Y1008380D03*
X916940Y1033780D03*
X916940Y1059180D03*
X916940Y1084580D03*
X916940Y1109980D03*
X916940Y1135380D03*
D11*
X877570Y1191260D03*
X713740Y665480D03*
D12*
X814070Y758190D03*
D13*
X726440Y640080D03*
X904240Y640080D03*
X726440Y1173480D03*
X904240Y1173480D03*
D10*
X947420Y855980D03*
X947420Y881380D03*
X947420Y906780D03*
X947420Y932180D03*
X947420Y957580D03*
X947420Y982980D03*
X947420Y1008380D03*
X947420Y1033780D03*
X947420Y1059180D03*
X947420Y1084580D03*
X947420Y1109980D03*
X947420Y1135380D03*
X1150620Y754380D03*
X1150620Y779780D03*
X1150620Y805180D03*
X1150620Y830580D03*
X1150620Y855980D03*
X1150620Y881380D03*
X1150620Y906780D03*
X1150620Y932180D03*
X1150620Y957580D03*
X1150620Y982980D03*
X1150620Y1008380D03*
X1150620Y1033780D03*
X1150620Y1059180D03*
X1150620Y1084580D03*
X1150620Y1109980D03*
X1150620Y1135380D03*
D11*
X1111250Y1191260D03*
X947420Y665480D03*
D12*
X1047750Y758190D03*
D13*
X960120Y640080D03*
X1137920Y640080D03*
X960120Y1173480D03*
X1137920Y1173480D03*
D10*
X12700Y1470660D03*
X12700Y1496060D03*
X12700Y1521460D03*
X12700Y1546860D03*
X12700Y1572260D03*
X12700Y1597660D03*
X12700Y1623060D03*
X12700Y1648460D03*
X12700Y1673860D03*
X12700Y1699260D03*
X12700Y1724660D03*
X12700Y1750060D03*
X215900Y1369060D03*
X215900Y1394460D03*
X215900Y1419860D03*
X215900Y1445260D03*
X215900Y1470660D03*
X215900Y1496060D03*
X215900Y1521460D03*
X215900Y1546860D03*
X215900Y1572260D03*
X215900Y1597660D03*
X215900Y1623060D03*
X215900Y1648460D03*
X215900Y1673860D03*
X215900Y1699260D03*
X215900Y1724660D03*
X215900Y1750060D03*
D11*
X176530Y1805940D03*
X12700Y1280160D03*
D12*
X113030Y1372870D03*
D13*
X25400Y1254760D03*
X203200Y1254760D03*
X25400Y1788160D03*
X203200Y1788160D03*
D10*
X246380Y1470660D03*
X246380Y1496060D03*
X246380Y1521460D03*
X246380Y1546860D03*
X246380Y1572260D03*
X246380Y1597660D03*
X246380Y1623060D03*
X246380Y1648460D03*
X246380Y1673860D03*
X246380Y1699260D03*
X246380Y1724660D03*
X246380Y1750060D03*
X449580Y1369060D03*
X449580Y1394460D03*
X449580Y1419860D03*
X449580Y1445260D03*
X449580Y1470660D03*
X449580Y1496060D03*
X449580Y1521460D03*
X449580Y1546860D03*
X449580Y1572260D03*
X449580Y1597660D03*
X449580Y1623060D03*
X449580Y1648460D03*
X449580Y1673860D03*
X449580Y1699260D03*
X449580Y1724660D03*
X449580Y1750060D03*
D11*
X410210Y1805940D03*
X246380Y1280160D03*
D12*
X346710Y1372870D03*
D13*
X259080Y1254760D03*
X436880Y1254760D03*
X259080Y1788160D03*
X436880Y1788160D03*
D10*
X480060Y1470660D03*
X480060Y1496060D03*
X480060Y1521460D03*
X480060Y1546860D03*
X480060Y1572260D03*
X480060Y1597660D03*
X480060Y1623060D03*
X480060Y1648460D03*
X480060Y1673860D03*
X480060Y1699260D03*
X480060Y1724660D03*
X480060Y1750060D03*
X683260Y1369060D03*
X683260Y1394460D03*
X683260Y1419860D03*
X683260Y1445260D03*
X683260Y1470660D03*
X683260Y1496060D03*
X683260Y1521460D03*
X683260Y1546860D03*
X683260Y1572260D03*
X683260Y1597660D03*
X683260Y1623060D03*
X683260Y1648460D03*
X683260Y1673860D03*
X683260Y1699260D03*
X683260Y1724660D03*
X683260Y1750060D03*
D11*
X643890Y1805940D03*
X480060Y1280160D03*
D12*
X580390Y1372870D03*
D13*
X492760Y1254760D03*
X670560Y1254760D03*
X492760Y1788160D03*
X670560Y1788160D03*
D10*
X713740Y1470660D03*
X713740Y1496060D03*
X713740Y1521460D03*
X713740Y1546860D03*
X713740Y1572260D03*
X713740Y1597660D03*
X713740Y1623060D03*
X713740Y1648460D03*
X713740Y1673860D03*
X713740Y1699260D03*
X713740Y1724660D03*
X713740Y1750060D03*
X916940Y1369060D03*
X916940Y1394460D03*
X916940Y1419860D03*
X916940Y1445260D03*
X916940Y1470660D03*
X916940Y1496060D03*
X916940Y1521460D03*
X916940Y1546860D03*
X916940Y1572260D03*
X916940Y1597660D03*
X916940Y1623060D03*
X916940Y1648460D03*
X916940Y1673860D03*
X916940Y1699260D03*
X916940Y1724660D03*
X916940Y1750060D03*
D11*
X877570Y1805940D03*
X713740Y1280160D03*
D12*
X814070Y1372870D03*
D13*
X726440Y1254760D03*
X904240Y1254760D03*
X726440Y1788160D03*
X904240Y1788160D03*
D10*
X947420Y1470660D03*
X947420Y1496060D03*
X947420Y1521460D03*
X947420Y1546860D03*
X947420Y1572260D03*
X947420Y1597660D03*
X947420Y1623060D03*
X947420Y1648460D03*
X947420Y1673860D03*
X947420Y1699260D03*
X947420Y1724660D03*
X947420Y1750060D03*
X1150620Y1369060D03*
X1150620Y1394460D03*
X1150620Y1419860D03*
X1150620Y1445260D03*
X1150620Y1470660D03*
X1150620Y1496060D03*
X1150620Y1521460D03*
X1150620Y1546860D03*
X1150620Y1572260D03*
X1150620Y1597660D03*
X1150620Y1623060D03*
X1150620Y1648460D03*
X1150620Y1673860D03*
X1150620Y1699260D03*
X1150620Y1724660D03*
X1150620Y1750060D03*
D11*
X1111250Y1805940D03*
X947420Y1280160D03*
D12*
X1047750Y1372870D03*
D13*
X960120Y1254760D03*
X1137920Y1254760D03*
X960120Y1788160D03*
X1137920Y1788160D03*
D14*
X68580Y1859915D03*
X1094105Y1859915D03*
D15*
X59525Y-46355D02*
X59528Y-46133D01*
X59536Y-45911D01*
X59550Y-45689D01*
X59569Y-45467D01*
X59593Y-45247D01*
X59623Y-45026D01*
X59658Y-44807D01*
X59699Y-44588D01*
X59745Y-44371D01*
X59796Y-44155D01*
X59853Y-43940D01*
X59915Y-43726D01*
X59982Y-43515D01*
X60054Y-43304D01*
X60132Y-43096D01*
X60214Y-42890D01*
X60302Y-42686D01*
X60394Y-42483D01*
X60492Y-42284D01*
X60594Y-42087D01*
X60701Y-41892D01*
X60813Y-41700D01*
X60930Y-41511D01*
X61051Y-41324D01*
X61177Y-41141D01*
X61307Y-40961D01*
X61442Y-40784D01*
X61580Y-40611D01*
X61723Y-40441D01*
X61871Y-40274D01*
X62022Y-40111D01*
X62177Y-39952D01*
X62336Y-39797D01*
X62499Y-39646D01*
X62666Y-39498D01*
X62836Y-39355D01*
X63009Y-39217D01*
X63186Y-39082D01*
X63366Y-38952D01*
X63549Y-38826D01*
X63736Y-38705D01*
X63925Y-38588D01*
X64117Y-38476D01*
X64312Y-38369D01*
X64509Y-38267D01*
X64708Y-38169D01*
X64911Y-38077D01*
X65115Y-37989D01*
X65321Y-37907D01*
X65529Y-37829D01*
X65740Y-37757D01*
X65951Y-37690D01*
X66165Y-37628D01*
X66380Y-37571D01*
X66596Y-37520D01*
X66813Y-37474D01*
X67032Y-37433D01*
X67251Y-37398D01*
X67472Y-37368D01*
X67692Y-37344D01*
X67914Y-37325D01*
X68136Y-37311D01*
X68358Y-37303D01*
X68580Y-37300D01*
X68802Y-37303D01*
X69024Y-37311D01*
X69246Y-37325D01*
X69468Y-37344D01*
X69688Y-37368D01*
X69909Y-37398D01*
X70128Y-37433D01*
X70347Y-37474D01*
X70564Y-37520D01*
X70780Y-37571D01*
X70995Y-37628D01*
X71209Y-37690D01*
X71420Y-37757D01*
X71631Y-37829D01*
X71839Y-37907D01*
X72045Y-37989D01*
X72249Y-38077D01*
X72452Y-38169D01*
X72651Y-38267D01*
X72848Y-38369D01*
X73043Y-38476D01*
X73235Y-38588D01*
X73424Y-38705D01*
X73611Y-38826D01*
X73794Y-38952D01*
X73974Y-39082D01*
X74151Y-39217D01*
X74324Y-39355D01*
X74494Y-39498D01*
X74661Y-39646D01*
X74824Y-39797D01*
X74983Y-39952D01*
X75138Y-40111D01*
X75289Y-40274D01*
X75437Y-40441D01*
X75580Y-40611D01*
X75718Y-40784D01*
X75853Y-40961D01*
X75983Y-41141D01*
X76109Y-41324D01*
X76230Y-41511D01*
X76347Y-41700D01*
X76459Y-41892D01*
X76566Y-42087D01*
X76668Y-42284D01*
X76766Y-42483D01*
X76858Y-42686D01*
X76946Y-42890D01*
X77028Y-43096D01*
X77106Y-43304D01*
X77178Y-43515D01*
X77245Y-43726D01*
X77307Y-43940D01*
X77364Y-44155D01*
X77415Y-44371D01*
X77461Y-44588D01*
X77502Y-44807D01*
X77537Y-45026D01*
X77567Y-45247D01*
X77591Y-45467D01*
X77610Y-45689D01*
X77624Y-45911D01*
X77632Y-46133D01*
X77635Y-46355D01*
X77632Y-46577D01*
X77624Y-46799D01*
X77610Y-47021D01*
X77591Y-47243D01*
X77567Y-47463D01*
X77537Y-47684D01*
X77502Y-47903D01*
X77461Y-48122D01*
X77415Y-48339D01*
X77364Y-48555D01*
X77307Y-48770D01*
X77245Y-48984D01*
X77178Y-49195D01*
X77106Y-49406D01*
X77028Y-49614D01*
X76946Y-49820D01*
X76858Y-50024D01*
X76766Y-50227D01*
X76668Y-50426D01*
X76566Y-50623D01*
X76459Y-50818D01*
X76347Y-51010D01*
X76230Y-51199D01*
X76109Y-51386D01*
X75983Y-51569D01*
X75853Y-51749D01*
X75718Y-51926D01*
X75580Y-52099D01*
X75437Y-52269D01*
X75289Y-52436D01*
X75138Y-52599D01*
X74983Y-52758D01*
X74824Y-52913D01*
X74661Y-53064D01*
X74494Y-53212D01*
X74324Y-53355D01*
X74151Y-53493D01*
X73974Y-53628D01*
X73794Y-53758D01*
X73611Y-53884D01*
X73424Y-54005D01*
X73235Y-54122D01*
X73043Y-54234D01*
X72848Y-54341D01*
X72651Y-54443D01*
X72452Y-54541D01*
X72249Y-54633D01*
X72045Y-54721D01*
X71839Y-54803D01*
X71631Y-54881D01*
X71420Y-54953D01*
X71209Y-55020D01*
X70995Y-55082D01*
X70780Y-55139D01*
X70564Y-55190D01*
X70347Y-55236D01*
X70128Y-55277D01*
X69909Y-55312D01*
X69688Y-55342D01*
X69468Y-55366D01*
X69246Y-55385D01*
X69024Y-55399D01*
X68802Y-55407D01*
X68580Y-55410D01*
X68358Y-55407D01*
X68136Y-55399D01*
X67914Y-55385D01*
X67692Y-55366D01*
X67472Y-55342D01*
X67251Y-55312D01*
X67032Y-55277D01*
X66813Y-55236D01*
X66596Y-55190D01*
X66380Y-55139D01*
X66165Y-55082D01*
X65951Y-55020D01*
X65740Y-54953D01*
X65529Y-54881D01*
X65321Y-54803D01*
X65115Y-54721D01*
X64911Y-54633D01*
X64708Y-54541D01*
X64509Y-54443D01*
X64312Y-54341D01*
X64117Y-54234D01*
X63925Y-54122D01*
X63736Y-54005D01*
X63549Y-53884D01*
X63366Y-53758D01*
X63186Y-53628D01*
X63009Y-53493D01*
X62836Y-53355D01*
X62666Y-53212D01*
X62499Y-53064D01*
X62336Y-52913D01*
X62177Y-52758D01*
X62022Y-52599D01*
X61871Y-52436D01*
X61723Y-52269D01*
X61580Y-52099D01*
X61442Y-51926D01*
X61307Y-51749D01*
X61177Y-51569D01*
X61051Y-51386D01*
X60930Y-51199D01*
X60813Y-51010D01*
X60701Y-50818D01*
X60594Y-50623D01*
X60492Y-50426D01*
X60394Y-50227D01*
X60302Y-50024D01*
X60214Y-49820D01*
X60132Y-49614D01*
X60054Y-49406D01*
X59982Y-49195D01*
X59915Y-48984D01*
X59853Y-48770D01*
X59796Y-48555D01*
X59745Y-48339D01*
X59699Y-48122D01*
X59658Y-47903D01*
X59623Y-47684D01*
X59593Y-47463D01*
X59569Y-47243D01*
X59550Y-47021D01*
X59536Y-46799D01*
X59528Y-46577D01*
X59525Y-46355D01*
D16*
X68580Y-46355D03*
M02*
